# xmcd
#
# Track frame offsets:
# 150
# 13164
# 26154
# 40933
# 57931
# 71374
# 84848
# 95961
# 108769
# 119036
# 131748
# 146309
# 159885
# 176194
#
# Disc length: 2590 seconds
#
#
# Revision: 0
# Processed by: cddbd v1.5.2PL0 Copyright (c) Steve Scherf et al.
# Submitted via: FreeRIP 2.951 
#
DISCID=be0a1c0e
DTITLE=Trio Parada Dura - Trio Parada Dura vol 06
DYEAR=2006
DGENRE=Sertanejo
TTITLE0=Alguem Viu Ela Por Aí
TTITLE1=Pernilongo Da Vila
TTITLE2=Bebendo E Chorando
TTITLE3=Vida Do Avesso
TTITLE4=Brinco De Ouro
TTITLE5=Toda Noite Eu Dava Uma
TTITLE6=Paixao E Magoa
TTITLE7=Quem Não Sabe Nadar
TTITLE8=O Pinto Do Meu Tio
TTITLE9=Nao Posso Acreditar
TTITLE10=Pra Furar O Couro
TTITLE11=Tiro No Pe
TTITLE12=Cicatrizes
TTITLE13=Menino Deus
EXTD=
EXTT0=
EXTT1=
EXTT2=
EXTT3=
EXTT4=
EXTT5=
EXTT6=
EXTT7=
EXTT8=
EXTT9=
EXTT10=
EXTT11=
EXTT12=
EXTT13=
PLAYORDER=
